<?xml version="1.0" encoding="utf-8"?>
<!-- Generator: Adobe Illustrator 26.5.0, SVG Export Plug-In . SVG Version: 6.00 Build 0)  -->
<svg version="1.1" id="Layer_1" xmlns="http://www.w3.org/2000/svg" xmlns:xlink="http://www.w3.org/1999/xlink" x="0px" y="0px"
	 viewBox="0 0 233.24 316.78" style="enable-background:new 0 0 233.24 316.78;" xml:space="preserve">
<path d="M213.88,54.11c2.76,2.94,5.02,5.58,7.51,7.96c4.44,4.25,8.65,8.69,10.18,14.82c0.89,3.6,1.51,7.37,1.52,11.07
	c0.1,32.91,0.22,145.83-0.08,178.74c-0.12,13.58-5.84,25.11-15.45,34.67c-8.1,8.05-17.7,13.18-29.08,14.74
	c-2.88,0.4-5.81,0.6-8.71,0.61c-42.25,0.04-84.49-0.08-126.74,0.07c-24.3,0.08-43.28-15.23-50.09-35.48
	c-1.77-5.27-2.75-11.05-2.79-16.61c-0.23-33.08-0.14-146.16-0.03-179.24c0.03-8.08,3.01-15.06,8.84-20.79
	c3.03-2.98,5.91-6.09,8.84-9.17c0.33-0.35,0.5-0.84,0.81-1.37c-2.38-0.54-4.67-0.85-6.81-1.58C5.14,50.27,0.37,43.96,0.13,36.92
	c-0.2-5.91-0.11-11.83-0.1-17.75C0.06,7.9,7.3,0.45,18.6,0.03c0.5-0.02,1-0.01,1.5-0.01c64.41,0,128.82,0.02,193.24-0.03
	c8.17-0.01,14.44,3.1,18.03,10.53c1.12,2.31,1.6,5.1,1.71,7.69c0.25,5.74,0.15,11.5,0.06,17.25c-0.15,9.71-6.35,16.67-15.93,18.05
	C216.39,53.64,215.57,53.81,213.88,54.11z M37.39,54.77c-1.26,5.32-4.05,10.82-7.79,14.74c-1.78,1.86-3.72,3.58-5.63,5.32
	c-4.18,3.82-6.03,8.41-6.01,14.18c0.15,31.5,0.07,142.99,0.08,174.49c0,1.91-0.08,3.86,0.22,5.74
	c2.82,17.51,17.05,29.63,34.81,29.64c42.25,0.02,84.49,0.02,126.74-0.03c2.73,0,5.52-0.23,8.17-0.85
	c16.6-3.88,27.21-17.1,27.29-34.47c0.15-31.58,0.01-143.16,0.07-174.74c0.01-5.54-1.99-9.99-6.09-13.66
	c-6.53-5.83-12.44-12.12-14.2-21.31 M215.22,18.04c-65.81,0-131.4,0-197.03,0c0,5.95,0,11.73,0,17.61c65.74,0,131.33,0,197.03,0
	C215.22,29.74,215.22,24.01,215.22,18.04z"/>
<path d="M110.8,219.53c-2.72,0-5.37-1.39-6.87-3.89c-2.27-3.79-1.04-8.7,2.75-10.97l51.94-31.12l-10.04-15.4
	c-1.27-1.95-1.63-4.35-0.99-6.59c0.64-2.23,2.23-4.08,4.34-5.05l69.72-32.13c4.01-1.85,10.71,12.68,6.7,14.53l-61.31,28.25
	l9.52,14.6c1.19,1.82,1.58,4.05,1.1,6.17c-0.49,2.12-1.82,3.95-3.68,5.07l-59.07,35.39C113.62,219.16,112.2,219.53,110.8,219.53z"/>
<path d="M65.28,247.21c-2.71,0-5.36-1.38-6.86-3.87c-2.28-3.79-1.06-8.7,2.72-10.98l24.5-14.76c3.78-2.28,8.7-1.06,10.98,2.72
	c2.28,3.79,1.06,8.7-2.72,10.98l-24.5,14.76C68.1,246.84,66.68,247.21,65.28,247.21z"/>
</svg>
