<?xml version="1.0" encoding="utf-8"?>
<!-- Generator: Adobe Illustrator 26.5.0, SVG Export Plug-In . SVG Version: 6.00 Build 0)  -->
<svg version="1.1" id="Layer_1" xmlns="http://www.w3.org/2000/svg" xmlns:xlink="http://www.w3.org/1999/xlink" x="0px" y="0px"
	 viewBox="0 0 253.5 253.5" style="enable-background:new 0 0 253.5 253.5;" xml:space="preserve">
<style type="text/css">
	.st0{fill-rule:evenodd;clip-rule:evenodd;fill:#E4EBF7;}
	.st1{fill-rule:evenodd;clip-rule:evenodd;fill:#FFFFFF;}
	.st2{fill:none;stroke:#FFFFFF;stroke-width:2;}
	.st3{fill-rule:evenodd;clip-rule:evenodd;fill:#FF603B;}
	.st4{fill:none;stroke:#BFCDDD;stroke-width:2;stroke-linecap:round;stroke-linejoin:round;}
	.st5{fill-rule:evenodd;clip-rule:evenodd;fill:#A3B4C6;}
	.st6{fill-rule:evenodd;clip-rule:evenodd;fill:#BFCDDD;}
	.st7{fill:none;stroke:#7C90A5;stroke-width:1.124;stroke-linecap:round;stroke-linejoin:round;}
	.st8{fill:none;stroke:#A3B4C6;stroke-width:1.124;stroke-linecap:round;stroke-linejoin:round;}
	.st9{fill-rule:evenodd;clip-rule:evenodd;fill:#5BA02E;}
	.st10{fill-rule:evenodd;clip-rule:evenodd;fill:#92C110;}
	.st11{fill-rule:evenodd;clip-rule:evenodd;fill:#F2D7AD;}
</style>
<g transform="translate(0 .067)">
	<path class="st0" d="M0,127.7v-2.1C0,56.2,56.3-0.1,125.7-0.1h2.1c69.4,0,125.7,56.3,125.7,125.7v2.1
		c0,69.4-56.3,125.7-125.7,125.7h-2.1C56.3,253.4,0,197.2,0,127.7"/>
</g>
<path class="st1" d="M40,131.7c-0.5,4.6-4.5,7.9-9.1,7.5c-4.6-0.5-7.9-4.5-7.5-9.1c0.5-4.6,4.6-7.9,9.1-7.4
	C37.1,123.1,40.4,127.1,40,131.7"/>
<path class="st2" d="M37.2,135.2l10.6,6 M48.7,147.5L36,158.4"/>
<path class="st1" d="M40.1,160.4c-0.3,3.1-3.1,5.4-6.2,5.2c-3.1-0.3-5.4-3.1-5.2-6.2v-0.1c0.3-3.1,3.2-5.4,6.3-5.1
	C38.1,154.6,40.4,157.3,40.1,160.4 M57.9,144.2c-0.3,3.2-3.1,5.5-6.3,5.2s-5.5-3.1-5.2-6.3c0,0,0,0,0-0.1c0.3-3.2,3.1-5.5,6.3-5.1
	C56,138.2,58.3,141.1,57.9,144.2 M99.7,27h30c2.6,0,4.6-2.1,4.6-4.6c0-2.6-2.1-4.6-4.6-4.6h-30c-2.6,0.1-4.6,2.2-4.5,4.7
	C95.2,25,97.2,27,99.7,27 M111.1,45.5h30c2.6,0.1,4.7-2,4.7-4.5c0.1-2.6-2-4.7-4.5-4.7c-0.1,0-0.1,0-0.2,0h-30
	c-2.6,0-4.6,2.1-4.6,4.6C106.5,43.4,108.6,45.5,111.1,45.5"/>
<path class="st1" d="M113.5,27L113.5,27h15.9c-2.6,0-4.6,2.1-4.6,4.6c0,2.6,2.1,4.6,4.6,4.6h-15.9l0,0c2.5-0.1,4.6-2.2,4.5-4.7
	C118,29.1,116,27.1,113.5,27 M150.2,69.7h-4c-2.6,0-4.8-2.1-4.8-4.8c0-2.6,2.1-4.8,4.8-4.8h4c2.6,0,4.8,2.1,4.8,4.8
	C154.9,67.5,152.8,69.7,150.2,69.7"/>
<path class="st3" d="M171.7,29.8c0-16.4,13.3-29.7,29.7-29.7S231,13.4,231,29.8s-13.3,29.7-29.7,29.7S171.7,46.2,171.7,29.8"/>
<path class="st1" d="M203.6,19l-0.7,15c0,0.8-0.7,1.5-1.6,1.5c-0.8,0-1.4-0.7-1.5-1.5l-0.7-15c0-1.2,0.9-2.2,2.1-2.3
	c1.2,0,2.2,0.9,2.3,2.1C203.6,18.9,203.6,19,203.6,19 M203.3,38.4c0.5,0.5,0.8,1.1,0.8,1.9s-0.3,1.4-0.8,1.9
	c-0.6,0.5-1.2,0.7-1.9,0.7s-1.4-0.3-1.9-0.8c-0.6-0.5-0.8-1.1-0.8-1.9c0-0.8,0.3-1.4,0.8-1.9s1.1-0.7,1.9-0.7
	C202.1,37.7,202.8,37.9,203.3,38.4"/>
<path class="st4" d="M194.6,83.3l4-3.9 M187.2,90.5l3.7-3.7 M191.8,83.8l-4.5-4.6 M198.5,90.7l-4.1-4.2 M129.3,162.7l3.7-3.7
	 M122.3,169.6l3.5-3.5 M126.6,163.2l-4.3-4.3 M133,169.6l-4-4"/>
<path class="st5" d="M190.2,211.4h-1.6c-2.2,0-4-1.8-4-4v-32.1c0-2.2,1.8-4,4-4h1.6c2.2,0,4,1.8,4,4v32.1
	C194.2,209.6,192.4,211.4,190.2,211.4"/>
<path class="st5" d="M237.8,212.6c0,2.7-2.2,4.8-4.8,4.8l0,0h-86.6c-2.7,0-4.8-2.2-4.8-4.8s2.2-4.8,4.8-4.8H233
	C235.7,207.8,237.8,209.9,237.8,212.6L237.8,212.6"/>
<path class="st5" d="M154.1,189.7h70.5v-84.6h-70.5V189.7z"/>
<path class="st6" d="M224.9,189.7h-71.1c-1.8,0-3.2-1.4-3.2-3.2v-19c0-1.8,1.4-3.2,3.2-3.2h71.1c1.8,0,3.2,1.4,3.2,3.2v19
	C228.1,188.3,226.7,189.7,224.9,189.7 M224.9,130.4h-71.1c-1.8,0-3.2-1.4-3.2-3.2v-19c0-1.8,1.4-3.2,3.2-3.2h71.1
	c1.8,0,3.2,1.4,3.2,3.2v19C228.1,129,226.7,130.4,224.9,130.4"/>
<path class="st1" d="M159.6,120.1c-1.3,0-2.4-1-2.5-2.4c0-1.3,1-2.4,2.4-2.5h0.1c1.3,0,2.4,1.1,2.4,2.5
	C161.9,119.1,160.9,120.1,159.6,120.1 M167,120.1c-1.3,0-2.4-1-2.5-2.4c0-1.3,1-2.4,2.4-2.5h0.1c1.3,0,2.4,1.1,2.4,2.5
	C169.3,119.1,168.3,120.1,167,120.1 M174.4,120.1c-1.3,0-2.4-1-2.5-2.4c0-1.3,1-2.4,2.4-2.5h0.1c1.3,0,2.4,1.1,2.4,2.5
	C176.7,119.1,175.7,120.1,174.4,120.1 M222.5,120.1H200c-0.4,0-0.8-0.4-0.8-0.8l0,0v-3.2c0-0.4,0.4-0.8,0.8-0.8h22.5
	c0.4,0,0.8,0.4,0.8,0.8v3.2C223.3,119.8,223,120.1,222.5,120.1"/>
<path class="st6" d="M224.9,160.1h-71.1c-1.8,0-3.2-1.4-3.2-3.2v-19c0-1.8,1.4-3.2,3.2-3.2h71.1c1.8,0,3.2,1.4,3.2,3.2v19
	C228.1,158.6,226.7,160.1,224.9,160.1"/>
<path class="st7" d="M173.5,130.4h49.3 M165,130.4h6.1 M156,130.4h6.8 M173.8,160.2h49.3 M165.4,160.2h6.1 M155.6,160.2h6.8"/>
<path class="st1" d="M159.6,150.6c-1.3,0-2.4-1.1-2.4-2.4s1.1-2.4,2.4-2.4l0,0c1.3,0,2.4,1.1,2.4,2.4
	C162,149.6,160.9,150.6,159.6,150.6 M167,150.6c-1.3,0-2.4-1.1-2.4-2.4s1.1-2.4,2.4-2.4l0,0c1.3,0,2.4,1.1,2.4,2.4
	C169.4,149.6,168.3,150.6,167,150.6 M174.4,150.6c-1.3,0-2.4-1.1-2.4-2.4c0-1.3,1.1-2.4,2.4-2.4l0,0c1.3,0,2.4,1.1,2.4,2.4
	C176.8,149.6,175.7,150.6,174.4,150.6 M222.5,150.6H200c-0.4,0-0.8-0.4-0.8-0.8l0,0v-3.2c0-0.4,0.4-0.8,0.8-0.8h22.5
	c0.4,0,0.8,0.4,0.8,0.8v3.2C223.3,150.3,223,150.6,222.5,150.6 M159.6,179.6c-1.3,0-2.4-1-2.5-2.4s1-2.4,2.4-2.5h0.1
	c1.3,0,2.4,1.1,2.4,2.5C161.9,178.5,160.9,179.6,159.6,179.6 M167,179.6c-1.3,0-2.4-1-2.5-2.4s1-2.4,2.4-2.5h0.1
	c1.3,0,2.4,1.1,2.4,2.5C169.3,178.5,168.3,179.6,167,179.6 M174.4,179.6c-1.3,0-2.4-1-2.5-2.4s1-2.4,2.4-2.5h0.1
	c1.3,0,2.4,1.1,2.4,2.5C176.7,178.5,175.7,179.6,174.4,179.6 M222.5,179.6H200c-0.4,0-0.8-0.4-0.8-0.8l0,0v-3.2
	c0-0.4,0.4-0.8,0.8-0.8h22.5c0.4,0,0.8,0.4,0.8,0.8v3.2C223.3,179.2,223,179.6,222.5,179.6"/>
<path class="st6" d="M203,220.7h-27.4c-1.3,0-2.4-1.1-2.4-2.4v-11.4c0-1.3,1.1-2.4,2.4-2.4H203c1.3,0,2.4,1.1,2.4,2.4v11.4
	C205.4,219.6,204.4,220.7,203,220.7"/>
<path class="st8" d="M177.3,206.8v11.5 M201.1,206.8v11.5"/>
<path class="st9" d="M63.8,198.7c-9.8,0-17.8-8-17.8-17.8v-28c0.2-9.8,8.1-17.8,18-17.6c9.7,0.2,17.6,8,17.6,17.6v28
	C81.6,190.7,73.6,198.7,63.8,198.7"/>
<path class="st10" d="M79.5,198.5c-9.8,0-17.8-8-17.8-17.8l0,0v-6.4c0.2-9.8,8.1-17.8,18-17.6c9.7,0.2,17.6,8,17.6,17.6v6.4
	C97.3,190.5,89.4,198.5,79.5,198.5"/>
<path class="st11" d="M98.6,247.5H46.2c-3.4,0-6.1-2.7-6.1-6.1l0,0v-39.2c0-3.4,2.7-6.1,6.1-6.1l0,0h52.4c3.4,0,6.1,2.7,6.1,6.1l0,0
	v39.2C104.7,244.7,102,247.5,98.6,247.5L98.6,247.5"/>
</svg>
