<?xml version="1.0" encoding="utf-8"?>
<!-- Generator: Adobe Illustrator 26.5.0, SVG Export Plug-In . SVG Version: 6.00 Build 0)  -->
<svg version="1.1" id="Layer_1" xmlns="http://www.w3.org/2000/svg" xmlns:xlink="http://www.w3.org/1999/xlink" x="0px" y="0px"
	 viewBox="0 0 251.7 251.7" style="enable-background:new 0 0 251.7 251.7;" xml:space="preserve">
<style type="text/css">
	.st0{fill-rule:evenodd;clip-rule:evenodd;fill:#E4EBF7;}
	.st1{fill-rule:evenodd;clip-rule:evenodd;fill:#FFFFFF;}
	.st2{fill:none;stroke:#FFFFFF;stroke-width:2;}
	.st3{fill-rule:evenodd;clip-rule:evenodd;fill:#1890FF;}
	.st4{fill-rule:evenodd;clip-rule:evenodd;fill:#5BA02E;}
	.st5{fill-rule:evenodd;clip-rule:evenodd;fill:#92C110;}
	.st6{fill-rule:evenodd;clip-rule:evenodd;fill:#F2D7AD;}
</style>
<g transform="translate(0 .012)">
	<path class="st0" d="M0,126.9v-2.1C0,55.9,55.9,0,124.8,0h2.1c68.9,0,124.8,55.9,124.8,124.8v2.1c0,68.9-55.9,124.8-124.8,124.8
		h-2.1C55.9,251.8,0,195.9,0,126.9"/>
</g>
<path class="st1" d="M39.8,130.4c-0.4,4.6-4.5,7.9-9,7.5s-7.9-4.5-7.5-9v-0.1c0.5-4.5,4.6-7.8,9.1-7.3
	C36.9,121.9,40.2,125.9,39.8,130.4"/>
<path class="st2" d="M37,133.9l10.5,5.9 M48.4,146.1l-12.6,10.8"/>
<path class="st1" d="M39.9,159c-0.3,3.1-3.1,5.4-6.2,5.1c-3.1-0.3-5.4-3.1-5.1-6.2l0,0c0.3-3.1,3.1-5.4,6.2-5.1
	C37.9,153.1,40.2,155.8,39.9,159 M57.6,142.8c-0.3,3.1-3.1,5.4-6.2,5.2c-3.1-0.3-5.4-3.1-5.2-6.2v-0.1c0.3-3.1,3.2-5.4,6.3-5.1
	C55.6,137,57.9,139.7,57.6,142.8 M99,26.5h29.8c2.5,0,4.6-2.1,4.6-4.6s-2.1-4.6-4.6-4.6H99c-2.5,0-4.6,2.1-4.6,4.6
	S96.5,26.5,99,26.5 M110.4,44.8h29.8c2.5,0,4.6-2.1,4.5-4.7c0-2.5-2-4.5-4.5-4.5h-29.8c-2.5,0-4.6,2.1-4.6,4.6
	C105.8,42.8,107.9,44.8,110.4,44.8"/>
<path class="st1" d="M112.8,26.5L112.8,26.5h15.8c-2.5,0-4.6,2-4.7,4.5c0,2.5,2,4.6,4.5,4.7h0.1h-15.8l0,0c2.5,0,4.6-2.1,4.6-4.6
	C117.4,28.5,115.3,26.5,112.8,26.5 M184.5,135.3c-0.6,5.5-5.4,9.5-10.9,8.9s-9.5-5.4-8.9-10.9s5.4-9.5,10.9-8.9
	S185.1,129.8,184.5,135.3"/>
<path class="st2" d="M179.3,141.4l12.6,7.2 M193,156.1l-15.3,13"/>
<path class="st1" d="M184.7,169.7c-0.3,3.8-3.7,6.5-7.4,6.2s-6.5-3.7-6.2-7.4c0-0.1,0-0.1,0-0.2c0.4-3.8,3.8-6.4,7.6-6
	C182.3,162.7,185,166,184.7,169.7 M203.3,152.9c-0.4,3.8-3.7,6.6-7.5,6.2c-3.8-0.4-6.6-3.7-6.2-7.5v-0.1c0.4-3.8,3.8-6.5,7.6-6.1
	C201,145.9,203.7,149.2,203.3,152.9"/>
<path class="st2" d="M151.9,191.9c0,1.2-1,2.2-2.2,2.2s-2.2-1-2.2-2.2l0,0c0-1.2,1-2.2,2.2-2.2S151.9,190.7,151.9,191.9z
	 M225.3,115.7c0,1.2-1,2.2-2.2,2.2s-2.2-1-2.2-2.2s1-2.2,2.2-2.2S225.3,114.4,225.3,115.7L225.3,115.7z M216.4,150.7
	c0,1.2-1,2.2-2.2,2.2s-2.2-1-2.2-2.2l0,0c0-1.2,1-2.2,2.2-2.2C215.4,148.5,216.4,149.5,216.4,150.7L216.4,150.7z M176.9,107.2
	c0,1.2-0.9,2.2-2.2,2.3c-1.2,0-2.2-0.9-2.3-2.2v-0.1c0-1.2,1-2.2,2.3-2.2C175.9,105.1,176.9,106,176.9,107.2z M195.3,91.8
	c0,1.2-0.9,2.2-2.2,2.3c-1.2,0-2.2-0.9-2.3-2.2v-0.1c0-1.2,1-2.2,2.3-2.2C194.3,89.6,195.3,90.6,195.3,91.8z M202.1,180.3
	c0,1.2-1,2.2-2.2,2.2s-2.2-1-2.2-2.2l0,0c0-1.2,1-2.2,2.2-2.2S202.1,179.1,202.1,180.3z"/>
<path class="st2" d="M214.4,152.9l-1.9,20.2l-10.9,6 M173.7,174.4l-6.4,9.8h-11.4l-4.5,6.5 M174.9,124.8V109 M220.8,116.8l-12.8,7.9
	l-15.3-7.9V94"/>
<path class="st1" d="M166.6,65.5h-4c-2.6,0-4.7-2.1-4.7-4.7c0-2.6,2.1-4.7,4.7-4.7h4c2.6,0,4.7,2.1,4.7,4.7
	C171.3,63.4,169.2,65.5,166.6,65.5"/>
<path class="st3" d="M174.8,29.6c0-16.3,13.2-29.5,29.5-29.5s29.5,13.2,29.5,29.5s-13.2,29.5-29.5,29.5S174.8,45.9,174.8,29.6"/>
<path class="st1" d="M206,38c0.5,0.5,0.8,1.1,0.8,1.9s-0.3,1.5-0.8,2c-0.6,0.5-1.2,0.8-2,0.8s-1.4-0.3-1.9-0.8
	c-0.6-0.5-0.8-1.1-0.8-1.9s0.2-1.4,0.8-1.9c0.5-0.5,1.1-0.8,1.9-0.8C204.7,37.2,205.4,37.5,206,38 M210.2,18.5
	c1.4,1.2,2.1,3,2.1,5.1c0,1.7-0.4,3.1-1.2,4.2c-0.1,0.1-0.1,0.2-0.2,0.3c-0.4,0.4-1.4,1.3-3,2.7c-0.6,0.5-1.1,1.1-1.4,1.7
	c-0.4,0.7-0.5,1.5-0.5,2.4v0.5h-4.1v-0.5c0-1.4,0.2-2.5,0.7-3.5c0.5-1,1.9-2.5,4.2-4.5l0.4-0.5c0.6-0.8,1-1.6,1-2.5
	c0-1.2-0.4-2.1-1-2.8c-0.7-0.7-1.6-1-2.9-1c-1.5,0-2.6,0.5-3.4,1.4c-0.4,0.5-0.6,1.1-0.8,1.9c-0.2,0.9-1,1.6-2,1.6l0,0
	c-1.3,0-2.3-1.2-2-2.4c0.3-1.5,1-2.8,2.1-3.8c1.5-1.5,3.6-2.2,6.2-2.2C206.9,16.6,208.8,17.2,210.2,18.5"/>
<path class="st4" d="M76.5,184.7c-4.9,0-8.8-4-8.8-8.8l0,0V87.3c0-4.9,4-8.8,8.8-8.8c4.8,0,8.8,4,8.8,8.8v88.6
	C85.3,180.7,81.3,184.7,76.5,184.7L76.5,184.7"/>
<path class="st5" d="M87,183.9c-4.9,0-8.8-4-8.8-8.8v-44.2c0-4.9,3.9-8.9,8.8-8.9c4.9,0,8.9,3.9,8.9,8.8c0,0.1,0,0.1,0,0.3v44
	C96,179.9,92,183.9,87,183.9L87,183.9"/>
<path class="st6" d="M100.2,245H63.6c-2.4,0-4.3-1.9-4.3-4.3l0,0v-61.4c0-2.4,1.9-4.3,4.3-4.3h36.6c2.4,0,4.3,1.9,4.3,4.3v61.4
	C104.5,243.2,102.6,245,100.2,245L100.2,245"/>
</svg>
