<?xml version="1.0" encoding="utf-8"?>
<!-- Generator: Adobe Illustrator 26.5.0, SVG Export Plug-In . SVG Version: 6.00 Build 0)  -->
<svg version="1.1" id="Layer_1" xmlns="http://www.w3.org/2000/svg" xmlns:xlink="http://www.w3.org/1999/xlink" x="0px" y="0px"
	 viewBox="0 0 252 294" style="enable-background:new 0 0 252 294;" xml:space="preserve">
<style type="text/css">
	.st0{fill-rule:evenodd;clip-rule:evenodd;fill:#E4EBF7;}
	.st1{fill-rule:evenodd;clip-rule:evenodd;fill:#FFFFFF;}
	.st2{fill:none;stroke:#FFFFFF;stroke-width:2;}
	.st3{fill-rule:evenodd;clip-rule:evenodd;fill:#1890FF;}
	.st4{fill-rule:evenodd;clip-rule:evenodd;fill:#5BA02E;}
	.st5{fill-rule:evenodd;clip-rule:evenodd;fill:#92C110;}
	.st6{fill-rule:evenodd;clip-rule:evenodd;fill:#F2D7AD;}
</style>
<g transform="translate(0 .012)">
	<path class="st0" d="M0,127.3v-2.1C0,56.3,55.9,0.4,124.8,0.4h2.1c68.9,0,124.8,55.9,124.8,124.8v2.1
		c0,68.9-55.9,124.8-124.8,124.8h-2.1C55.9,252.2,0,196.3,0,127.3"/>
</g>
<path class="st1" d="M39.8,130.8c-0.4,4.6-4.5,7.9-9,7.5s-7.9-4.5-7.5-9c0,0,0-0.1,0-0.1c0.5-4.5,4.6-7.8,9.1-7.3
	C36.9,122.3,40.2,126.3,39.8,130.8"/>
<path class="st2" d="M37,134.3l10.5,5.9 M48.4,146.5l-12.6,10.8"/>
<path class="st1" d="M39.9,159.4c-0.3,3.1-3.1,5.4-6.2,5.1c-3.1-0.3-5.4-3.1-5.1-6.2l0,0c0.3-3.1,3.1-5.4,6.2-5.1
	C37.9,153.5,40.2,156.2,39.9,159.4 M57.6,143.2c-0.3,3.1-3.1,5.4-6.2,5.2c-3.1-0.3-5.4-3.1-5.2-6.2c0,0,0-0.1,0-0.1
	c0.3-3.1,3.2-5.4,6.3-5.1C55.6,137.4,57.9,140.1,57.6,143.2 M99,26.9l29.8,0c2.5,0,4.6-2.1,4.6-4.6c0-2.5-2.1-4.6-4.6-4.6l-29.8,0
	c-2.5,0-4.6,2.1-4.6,4.6C94.4,24.8,96.5,26.9,99,26.9 M110.4,45.2l29.8,0c2.5,0,4.6-2.1,4.5-4.7c0-2.5-2-4.5-4.5-4.5l-29.8,0
	c-2.5,0-4.6,2.1-4.6,4.6C105.8,43.2,107.9,45.2,110.4,45.2"/>
<path class="st1" d="M112.8,26.9L112.8,26.9l15.8,0c-2.5,0-4.6,2-4.7,4.5c0,2.5,2,4.6,4.5,4.7c0,0,0.1,0,0.1,0l-15.8,0v0
	c2.5,0,4.6-2.1,4.6-4.6C117.4,28.9,115.3,26.9,112.8,26.9 M184.5,135.7c-0.6,5.5-5.4,9.5-10.9,8.9c-5.5-0.6-9.5-5.4-8.9-10.9
	c0.6-5.5,5.4-9.5,10.9-8.9S185.1,130.2,184.5,135.7"/>
<path class="st2" d="M179.3,141.8l12.6,7.2 M193,156.5l-15.3,13"/>
<path class="st1" d="M184.7,170.1c-0.3,3.8-3.7,6.5-7.4,6.2s-6.5-3.7-6.2-7.4c0-0.1,0-0.1,0-0.2c0.4-3.8,3.8-6.4,7.6-6
	C182.3,163.1,185,166.4,184.7,170.1 M203.3,153.3c-0.4,3.8-3.7,6.6-7.5,6.2c-3.8-0.4-6.6-3.7-6.2-7.5c0,0,0-0.1,0-0.1
	c0.4-3.8,3.8-6.5,7.6-6.1C201,146.3,203.7,149.6,203.3,153.3"/>
<path class="st2" d="M151.9,192.3c0,1.2-1,2.2-2.2,2.2s-2.2-1-2.2-2.2l0,0c0-1.2,1-2.2,2.2-2.2S151.9,191.1,151.9,192.3z
	 M225.3,116.1c0,1.2-1,2.2-2.2,2.2s-2.2-1-2.2-2.2c0-1.2,1-2.2,2.2-2.2S225.3,114.8,225.3,116.1L225.3,116.1z M216.4,151.1
	c0,1.2-1,2.2-2.2,2.2c-1.2,0-2.2-1-2.2-2.2c0,0,0,0,0,0c0-1.2,1-2.2,2.2-2.2C215.4,148.9,216.4,149.9,216.4,151.1L216.4,151.1z
	 M176.9,107.6c0,1.2-0.9,2.2-2.2,2.3c-1.2,0-2.2-0.9-2.3-2.2c0,0,0-0.1,0-0.1c0-1.2,1-2.2,2.3-2.2
	C175.9,105.5,176.9,106.4,176.9,107.6z M195.3,92.2c0,1.2-0.9,2.2-2.2,2.3c-1.2,0-2.2-0.9-2.3-2.2c0,0,0-0.1,0-0.1
	c0-1.2,1-2.2,2.3-2.2C194.3,90,195.3,91,195.3,92.2z M202.1,180.7c0,1.2-1,2.2-2.2,2.2c-1.2,0-2.2-1-2.2-2.2c0,0,0,0,0,0
	c0-1.2,1-2.2,2.2-2.2C201.1,178.5,202.1,179.5,202.1,180.7z"/>
<path class="st2" d="M214.4,153.3l-1.9,20.2l-10.9,6 M173.7,174.8l-6.4,9.8h-11.4l-4.5,6.5 M174.9,125.2v-15.8 M220.8,117.2
	l-12.8,7.9l-15.3-7.9V94.4"/>
<path class="st1" d="M166.6,65.9h-4c-2.6,0-4.7-2.1-4.7-4.7c0-2.6,2.1-4.7,4.7-4.7h4c2.6,0,4.7,2.1,4.7,4.7
	C171.3,63.8,169.2,65.9,166.6,65.9"/>
<path class="st3" d="M174.8,30c0-16.3,13.2-29.5,29.5-29.5c16.3,0,29.5,13.2,29.5,29.5c0,16.3-13.2,29.5-29.5,29.5
	C188,59.5,174.8,46.3,174.8,30"/>
<path class="st1" d="M206,38.4c0.5,0.5,0.8,1.1,0.8,1.9s-0.3,1.5-0.8,2c-0.6,0.5-1.2,0.8-2,0.8c-0.8,0-1.4-0.3-1.9-0.8
	c-0.6-0.5-0.8-1.1-0.8-1.9s0.2-1.4,0.8-1.9c0.5-0.5,1.1-0.8,1.9-0.8C204.7,37.6,205.4,37.9,206,38.4 M210.2,18.9
	c1.4,1.2,2.1,3,2.1,5.1c0,1.7-0.4,3.1-1.2,4.2c-0.1,0.1-0.1,0.2-0.2,0.3c-0.4,0.4-1.4,1.3-3,2.7c-0.6,0.5-1.1,1.1-1.4,1.7
	c-0.4,0.7-0.5,1.5-0.5,2.4v0.5h-4.1v-0.5c0-1.4,0.2-2.5,0.7-3.5c0.5-1,1.9-2.5,4.2-4.5l0.4-0.5c0.6-0.8,1-1.6,1-2.5
	c0-1.2-0.4-2.1-1-2.8c-0.7-0.7-1.6-1-2.9-1c-1.5,0-2.6,0.5-3.4,1.4c-0.4,0.5-0.6,1.1-0.8,1.9c-0.2,0.9-1,1.6-2,1.6h0
	c-1.3,0-2.3-1.2-2-2.4c0.3-1.5,1-2.8,2.1-3.8c1.5-1.5,3.6-2.2,6.2-2.2C206.9,17,208.8,17.6,210.2,18.9"/>
<path class="st4" d="M168.6,248.3c-3.7,0-6.6-3-6.6-6.6l0,0v-66.5c0-3.7,3-6.6,6.6-6.6s6.6,3,6.6,6.6v66.5
	C175.2,245.3,172.2,248.3,168.6,248.3L168.6,248.3"/>
<path class="st5" d="M176.5,247.7c-3.7,0-6.6-3-6.6-6.6v-33.2c0-3.7,2.9-6.7,6.6-6.7c3.7,0,6.7,2.9,6.7,6.6c0,0.1,0,0.1,0,0.2V241
	C183.2,244.7,180.2,247.7,176.5,247.7L176.5,247.7"/>
<path class="st6" d="M186.4,293.6h-27.5c-1.8,0-3.2-1.4-3.2-3.2l0,0v-46.1c0-1.8,1.4-3.2,3.2-3.2h27.5c1.8,0,3.2,1.4,3.2,3.2v46.1
	C189.6,292.2,188.2,293.6,186.4,293.6C186.4,293.6,186.4,293.6,186.4,293.6"/>
</svg>
