<?xml version="1.0" encoding="utf-8"?>
<!-- Generator: Adobe Illustrator 26.5.0, SVG Export Plug-In . SVG Version: 6.00 Build 0)  -->
<svg version="1.1" id="Layer_1" xmlns="http://www.w3.org/2000/svg" xmlns:xlink="http://www.w3.org/1999/xlink" x="0px" y="0px"
	 viewBox="0 0 254 294" style="enable-background:new 0 0 254 294;" xml:space="preserve">
<style type="text/css">
	.st0{fill-rule:evenodd;clip-rule:evenodd;fill:#E4EBF7;}
	.st1{fill-rule:evenodd;clip-rule:evenodd;fill:#FFFFFF;}
	.st2{fill:none;stroke:#FFFFFF;stroke-width:2;}
	.st3{fill-rule:evenodd;clip-rule:evenodd;fill:#FF603B;}
	.st4{fill:none;stroke:#BFCDDD;stroke-width:2;stroke-linecap:round;stroke-linejoin:round;}
	.st5{fill-rule:evenodd;clip-rule:evenodd;fill:#A3B4C6;}
	.st6{fill-rule:evenodd;clip-rule:evenodd;fill:#BFCDDD;}
	.st7{fill:none;stroke:#7C90A5;stroke-width:1.124;stroke-linecap:round;stroke-linejoin:round;}
	.st8{fill:none;stroke:#A3B4C6;stroke-width:1.124;stroke-linecap:round;stroke-linejoin:round;}
	.st9{fill-rule:evenodd;clip-rule:evenodd;fill:#5BA02E;}
	.st10{fill-rule:evenodd;clip-rule:evenodd;fill:#92C110;}
	.st11{fill-rule:evenodd;clip-rule:evenodd;fill:#F2D7AD;}
</style>
<g transform="translate(0 .067)">
	<path class="st0" d="M0,128.1V126C0,56.6,56.3,0.3,125.7,0.3h2.1c69.4,0,125.7,56.3,125.7,125.7v2.1c0,69.4-56.3,125.7-125.7,125.7
		h-2.1C56.3,253.8,0,197.6,0,128.1"/>
</g>
<path class="st1" d="M40,132.1c-0.5,4.6-4.5,7.9-9.1,7.5c-4.6-0.5-7.9-4.5-7.5-9.1c0.5-4.6,4.6-7.9,9.1-7.4
	C37.1,123.5,40.4,127.5,40,132.1"/>
<path class="st2" d="M37.2,135.6l10.6,6 M48.7,147.9l-12.7,10.9"/>
<path class="st1" d="M40.1,160.8c-0.3,3.1-3.1,5.4-6.2,5.2c-3.1-0.3-5.4-3.1-5.2-6.2c0,0,0-0.1,0-0.1c0.3-3.1,3.2-5.4,6.3-5.1
	C38.1,155,40.4,157.7,40.1,160.8 M57.9,144.6c-0.3,3.2-3.1,5.5-6.3,5.2c-3.2-0.3-5.5-3.1-5.2-6.3c0,0,0,0,0-0.1
	c0.3-3.2,3.1-5.5,6.3-5.1C56,138.6,58.3,141.5,57.9,144.6 M99.7,27.4l30,0c2.6,0,4.6-2.1,4.6-4.6c0-2.6-2.1-4.6-4.6-4.6l-30,0
	c-2.6,0.1-4.6,2.2-4.5,4.7C95.2,25.4,97.2,27.4,99.7,27.4 M111.1,45.9l30,0c2.6,0.1,4.7-2,4.7-4.5c0.1-2.6-2-4.7-4.5-4.7
	c-0.1,0-0.1,0-0.2,0l-30,0c-2.6,0-4.6,2.1-4.6,4.6C106.5,43.8,108.6,45.9,111.1,45.9"/>
<path class="st1" d="M113.5,27.4L113.5,27.4l15.9,0c-2.6,0-4.6,2.1-4.6,4.6c0,2.6,2.1,4.6,4.6,4.6l-15.9,0v0
	c2.5-0.1,4.6-2.2,4.5-4.7C118,29.5,116,27.5,113.5,27.4 M150.2,70.1h-4c-2.6,0-4.8-2.1-4.8-4.8c0-2.6,2.1-4.8,4.8-4.8h4
	c2.6,0,4.8,2.1,4.8,4.8C154.9,67.9,152.8,70.1,150.2,70.1"/>
<path class="st3" d="M171.7,30.2c0-16.4,13.3-29.7,29.7-29.7S231,13.8,231,30.2c0,16.4-13.3,29.7-29.7,29.7S171.7,46.6,171.7,30.2"
	/>
<path class="st1" d="M203.6,19.4l-0.7,15c0,0.8-0.7,1.5-1.6,1.5c-0.8,0-1.4-0.7-1.5-1.5l-0.7-15c0-1.2,0.9-2.2,2.1-2.3
	c1.2,0,2.2,0.9,2.3,2.1C203.6,19.3,203.6,19.4,203.6,19.4 M203.3,38.8c0.5,0.5,0.8,1.1,0.8,1.9s-0.3,1.4-0.8,1.9
	c-0.6,0.5-1.2,0.7-1.9,0.7c-0.7,0-1.4-0.3-1.9-0.8c-0.6-0.5-0.8-1.1-0.8-1.9c0-0.8,0.3-1.4,0.8-1.9c0.5-0.5,1.1-0.7,1.9-0.7
	C202.1,38.1,202.8,38.3,203.3,38.8"/>
<path class="st4" d="M194.6,83.7l4-3.9 M187.2,90.9l3.7-3.7 M191.8,84.2l-4.5-4.6 M198.5,91.1l-4.1-4.2 M129.3,163.1l3.7-3.7
	 M122.3,170l3.5-3.5 M126.6,163.6l-4.3-4.3 M133,170l-4-4"/>
<path class="st5" d="M190.2,211.8h-1.6c-2.2,0-4-1.8-4-4v-32.1c0-2.2,1.8-4,4-4h1.6c2.2,0,4,1.8,4,4v32.1
	C194.2,210,192.4,211.8,190.2,211.8"/>
<path class="st5" d="M237.8,213c0,2.7-2.2,4.8-4.8,4.8l0,0h-86.6c-2.7,0-4.8-2.2-4.8-4.8s2.2-4.8,4.8-4.8H233
	C235.7,208.2,237.8,210.3,237.8,213L237.8,213"/>
<path class="st5" d="M154.1,190.1h70.5v-84.6h-70.5V190.1z"/>
<path class="st6" d="M224.9,190.1h-71.1c-1.8,0-3.2-1.4-3.2-3.2v-19c0-1.8,1.4-3.2,3.2-3.2h71.1c1.8,0,3.2,1.4,3.2,3.2v19
	C228.1,188.7,226.7,190.1,224.9,190.1 M224.9,130.8h-71.1c-1.8,0-3.2-1.4-3.2-3.2v-19c0-1.8,1.4-3.2,3.2-3.2h71.1
	c1.8,0,3.2,1.4,3.2,3.2v19C228.1,129.4,226.7,130.8,224.9,130.8"/>
<path class="st1" d="M159.6,120.5c-1.3,0-2.4-1-2.5-2.4c0-1.3,1-2.4,2.4-2.5c0,0,0.1,0,0.1,0c1.3,0,2.4,1.1,2.4,2.5
	C161.9,119.5,160.9,120.5,159.6,120.5 M167,120.5c-1.3,0-2.4-1-2.5-2.4c0-1.3,1-2.4,2.4-2.5c0,0,0.1,0,0.1,0c1.3,0,2.4,1.1,2.4,2.5
	C169.3,119.5,168.3,120.5,167,120.5 M174.4,120.5c-1.3,0-2.4-1-2.5-2.4c0-1.3,1-2.4,2.4-2.5c0,0,0.1,0,0.1,0c1.3,0,2.4,1.1,2.4,2.5
	C176.7,119.5,175.7,120.5,174.4,120.5 M222.5,120.5h-22.5c-0.4,0-0.8-0.4-0.8-0.8c0,0,0,0,0,0v-3.2c0-0.4,0.4-0.8,0.8-0.8h22.5
	c0.4,0,0.8,0.4,0.8,0.8v3.2C223.3,120.2,223,120.5,222.5,120.5"/>
<path class="st6" d="M224.9,160.5h-71.1c-1.8,0-3.2-1.4-3.2-3.2v-19c0-1.8,1.4-3.2,3.2-3.2h71.1c1.8,0,3.2,1.4,3.2,3.2v19
	C228.1,159,226.7,160.5,224.9,160.5"/>
<path class="st7" d="M173.5,130.8h49.3 M165,130.8h6.1 M156,130.8h6.8 M173.8,160.6h49.3 M165.4,160.6h6.1 M155.6,160.6h6.8"/>
<path class="st1" d="M159.6,151c-1.3,0-2.4-1.1-2.4-2.4s1.1-2.4,2.4-2.4c0,0,0,0,0,0c1.3,0,2.4,1.1,2.4,2.4
	C162,150,160.9,151,159.6,151 M167,151c-1.3,0-2.4-1.1-2.4-2.4s1.1-2.4,2.4-2.4c0,0,0,0,0,0c1.3,0,2.4,1.1,2.4,2.4
	C169.4,150,168.3,151,167,151 M174.4,151c-1.3,0-2.4-1.1-2.4-2.4c0-1.3,1.1-2.4,2.4-2.4c0,0,0,0,0,0c1.3,0,2.4,1.1,2.4,2.4
	C176.8,150,175.7,151,174.4,151 M222.5,151h-22.5c-0.4,0-0.8-0.4-0.8-0.8l0,0V147c0-0.4,0.4-0.8,0.8-0.8h22.5c0.4,0,0.8,0.4,0.8,0.8
	v3.2C223.3,150.7,223,151,222.5,151 M159.6,180c-1.3,0-2.4-1-2.5-2.4s1-2.4,2.4-2.5c0,0,0.1,0,0.1,0c1.3,0,2.4,1.1,2.4,2.5
	C161.9,178.9,160.9,180,159.6,180 M167,180c-1.3,0-2.4-1-2.5-2.4s1-2.4,2.4-2.5c0,0,0.1,0,0.1,0c1.3,0,2.4,1.1,2.4,2.5
	C169.3,178.9,168.3,180,167,180 M174.4,180c-1.3,0-2.4-1-2.5-2.4s1-2.4,2.4-2.5c0,0,0.1,0,0.1,0c1.3,0,2.4,1.1,2.4,2.5
	C176.7,178.9,175.7,180,174.4,180 M222.5,180h-22.5c-0.4,0-0.8-0.4-0.8-0.8l0,0V176c0-0.4,0.4-0.8,0.8-0.8h22.5
	c0.4,0,0.8,0.4,0.8,0.8v3.2C223.3,179.6,223,180,222.5,180"/>
<path class="st6" d="M203,221.1h-27.4c-1.3,0-2.4-1.1-2.4-2.4v-11.4c0-1.3,1.1-2.4,2.4-2.4H203c1.3,0,2.4,1.1,2.4,2.4v11.4
	C205.4,220,204.4,221.1,203,221.1"/>
<path class="st8" d="M177.3,207.2v11.5 M201.1,207.2v11.5"/>
<path class="st9" d="M162.9,267.9c-5.2,0-9.4-4.2-9.4-9.4v-14.8c0.1-5.2,4.3-9.4,9.5-9.3c5.1,0.1,9.3,4.2,9.3,9.3v14.8
	C172.3,263.7,168.1,267.9,162.9,267.9"/>
<path class="st10" d="M171.2,267.8c-5.2,0-9.4-4.2-9.4-9.4c0,0,0,0,0,0V255c0.1-5.2,4.3-9.4,9.5-9.3c5.1,0.1,9.3,4.2,9.3,9.3v3.4
	C180.6,263.6,176.4,267.8,171.2,267.8"/>
<path class="st11" d="M181.3,293.7h-27.7c-1.8,0-3.2-1.4-3.2-3.2c0,0,0,0,0,0v-20.7c0-1.8,1.4-3.2,3.2-3.2c0,0,0,0,0,0h27.7
	c1.8,0,3.2,1.4,3.2,3.2c0,0,0,0,0,0v20.7C184.5,292.2,183.1,293.7,181.3,293.7L181.3,293.7"/>
</svg>
