<?xml version="1.0" encoding="utf-8"?>
<!-- Generator: Adobe Illustrator 26.5.0, SVG Export Plug-In . SVG Version: 6.00 Build 0)  -->
<svg version="1.1" id="Layer_1" xmlns="http://www.w3.org/2000/svg" xmlns:xlink="http://www.w3.org/1999/xlink" x="0px" y="0px"
	 viewBox="0 0 209.6 146.5" style="enable-background:new 0 0 209.6 146.5;" xml:space="preserve">
<style type="text/css">
	.st0{fill-rule:evenodd;clip-rule:evenodd;fill:#E4EBF7;}
	.st1{fill-rule:evenodd;clip-rule:evenodd;fill:#FFFFFF;}
	.st2{fill-rule:evenodd;clip-rule:evenodd;fill:#FF603B;}
	.st3{fill:none;stroke:#BFCDDD;stroke-width:2;stroke-linecap:round;stroke-linejoin:round;}
	.st4{fill-rule:evenodd;clip-rule:evenodd;fill:#5BA02E;}
	.st5{fill-rule:evenodd;clip-rule:evenodd;fill:#92C110;}
	.st6{fill-rule:evenodd;clip-rule:evenodd;fill:#F2D7AD;}
</style>
<g>
	<g transform="translate(0 .067)">
		<path class="st0" d="M32.6,74.9v-1.2c0-39.5,32.1-71.6,71.6-71.6h1.2c39.5,0,71.6,32.1,71.6,71.6v1.2c0,39.5-32.1,71.6-71.6,71.6
			h-1.2C64.7,146.4,32.6,114.4,32.6,74.9"/>
	</g>
	<path class="st1" d="M78.3,26.9h30c2.6,0,4.6-2.1,4.6-4.6c0-2.6-2.1-4.6-4.6-4.6h-30c-2.6,0.1-4.6,2.2-4.5,4.7
		C73.8,24.9,75.8,26.9,78.3,26.9 M89.7,45.4h30c2.6,0.1,4.7-2,4.7-4.5c0.1-2.6-2-4.7-4.5-4.7c-0.1,0-0.1,0-0.2,0h-30
		c-2.6,0-4.6,2.1-4.6,4.6C85.1,43.3,87.2,45.4,89.7,45.4"/>
	<path class="st1" d="M92.1,26.9L92.1,26.9H108c-2.6,0-4.6,2.1-4.6,4.6c0,2.6,2.1,4.6,4.6,4.6H92.1l0,0c2.5-0.1,4.6-2.2,4.5-4.7
		C96.6,29,94.6,27,92.1,26.9 M128.8,69.6h-4c-2.6,0-4.8-2.1-4.8-4.8c0-2.6,2.1-4.8,4.8-4.8h4c2.6,0,4.8,2.1,4.8,4.8
		C133.5,67.4,131.4,69.6,128.8,69.6"/>
	<path class="st2" d="M150.3,29.7C150.3,13.3,163.6,0,180,0s29.6,13.3,29.6,29.7s-13.3,29.7-29.7,29.7S150.3,46.1,150.3,29.7"/>
	<path class="st1" d="M182.2,18.9l-0.7,15c0,0.8-0.7,1.5-1.6,1.5c-0.8,0-1.4-0.7-1.5-1.5l-0.7-15c0-1.2,0.9-2.2,2.1-2.3
		c1.2,0,2.2,0.9,2.3,2.1C182.2,18.8,182.2,18.9,182.2,18.9 M181.9,38.3c0.5,0.5,0.8,1.1,0.8,1.9s-0.3,1.4-0.8,1.9
		c-0.6,0.5-1.2,0.7-1.9,0.7s-1.4-0.3-1.9-0.8c-0.6-0.5-0.8-1.1-0.8-1.9c0-0.8,0.3-1.4,0.8-1.9s1.1-0.7,1.9-0.7
		C180.7,37.6,181.4,37.8,181.9,38.3"/>
	<path class="st3" d="M116.3,91.2l3.7-3.7 M109.3,98.1l3.5-3.5 M113.6,91.7l-4.3-4.3 M120,98.1l-4-4"/>
	<g>
		<path class="st4" d="M64,103.7c-7.6,0-13.7-6.1-13.7-13.7V68.5c0.1-7.6,6.3-13.7,13.9-13.6C71.5,55,77.7,61,77.7,68.5V90
			C77.7,97.6,71.5,103.7,64,103.7"/>
		<path class="st5" d="M76.1,103.6c-7.6,0-13.7-6.1-13.7-13.7l0,0v-5c0.1-7.6,6.3-13.7,13.9-13.6c7.4,0.1,13.6,6.1,13.6,13.6v5
			C89.8,97.5,83.6,103.6,76.1,103.6"/>
		<path class="st6" d="M90.8,141.4H50.4c-2.6,0-4.7-2-4.7-4.7l0,0v-30.2c0-2.6,2-4.7,4.7-4.7l0,0h40.4c2.6,0,4.7,2,4.7,4.7l0,0v30.2
			C95.5,139.2,93.4,141.4,90.8,141.4L90.8,141.4"/>
	</g>
</g>
</svg>
